<?xml version="1.0" standalone="no"?>
<!DOCTYPE svg PUBLIC "-//W3C//DTD SVG 20010904//EN"
 "http://www.w3.org/TR/2001/REC-SVG-20010904/DTD/svg10.dtd">
<svg version="1.0" xmlns="http://www.w3.org/2000/svg"
 width="86.000000pt" height="53.000000pt" viewBox="0 0 86.000000 53.000000"
 preserveAspectRatio="xMidYMid meet">

<g transform="translate(0.000000,53.000000) scale(0.100000,-0.100000)"
fill="#000000" stroke="none">
<path d="M228 331 c-27 -24 -33 -36 -33 -71 0 -35 6 -47 33 -71 56 -50 129
-33 158 37 12 29 12 39 0 68 -29 70 -102 87 -158 37z m104 -28 c36 -32 11
-103 -36 -103 -44 0 -74 46 -55 83 22 41 59 49 91 20z"/>
<path d="M508 331 c-27 -24 -33 -36 -33 -71 0 -35 6 -47 33 -71 56 -50 129
-33 158 37 12 29 12 39 0 68 -29 70 -102 87 -158 37z m104 -28 c36 -32 11
-103 -36 -103 -44 0 -74 46 -55 83 22 41 59 49 91 20z"/>
</g>
</svg>
